{
    "asset" : {
        "generator" : "Khronos glTF Blender I/O v1.7.33",
        "version" : "2.0"
    },
    "scene" : 0,
    "scenes" : [
        {
            "name" : "Scene",
            "nodes" : [
                0
            ]
        }
    ],
    "nodes" : [
        {
            "mesh" : 0,
            "name" : "Cube",
            "rotation" : [
                0,
                1,
                0,
                -1.6292068494294654e-07
            ],
            "scale" : [
                0.7533735036849976,
                0.6792600154876709,
                1.564178705215454
            ]
        }
    ],
    "materials" : [
        {
            "doubleSided" : true,
            "name" : "Material",
            "pbrMetallicRoughness" : {
                "baseColorFactor" : [
                    0.8307700753211975,
                    0.08865547180175781,
                    0.056128524243831635,
                    1
                ],
                "metallicFactor" : 0,
                "roughnessFactor" : 0.006299227476119995
            }
        },
        {
            "doubleSided" : true,
            "name" : "Material.001",
            "pbrMetallicRoughness" : {
                "baseColorFactor" : [
                    0.7529425621032715,
                    0.450785756111145,
                    0.4677838683128357,
                    1
                ],
                "metallicFactor" : 0,
                "roughnessFactor" : 0
            }
        },
        {
            "doubleSided" : true,
            "name" : "Material.002",
            "pbrMetallicRoughness" : {
                "baseColorFactor" : [
                    0.3762621581554413,
                    0.610495924949646,
                    0.7991030812263489,
                    1
                ],
                "metallicFactor" : 0,
                "roughnessFactor" : 0
            }
        },
        {
            "doubleSided" : true,
            "name" : "Material.003",
            "pbrMetallicRoughness" : {
                "baseColorFactor" : [
                    0.4575328230857849,
                    0.051918793469667435,
                    0.033564191311597824,
                    1
                ],
                "metallicFactor" : 0,
                "roughnessFactor" : 0
            }
        },
        {
            "doubleSided" : true,
            "name" : "Material.004",
            "pbrMetallicRoughness" : {
                "baseColorFactor" : [
                    0,
                    0,
                    0,
                    1
                ],
                "metallicFactor" : 0,
                "roughnessFactor" : 0
            }
        }
    ],
    "meshes" : [
        {
            "name" : "Cube",
            "primitives" : [
                {
                    "attributes" : {
                        "POSITION" : 0,
                        "NORMAL" : 1,
                        "TEXCOORD_0" : 2
                    },
                    "indices" : 3,
                    "material" : 0
                },
                {
                    "attributes" : {
                        "POSITION" : 4,
                        "NORMAL" : 5,
                        "TEXCOORD_0" : 6
                    },
                    "indices" : 7,
                    "material" : 1
                },
                {
                    "attributes" : {
                        "POSITION" : 8,
                        "NORMAL" : 9,
                        "TEXCOORD_0" : 10
                    },
                    "indices" : 11,
                    "material" : 2
                },
                {
                    "attributes" : {
                        "POSITION" : 12,
                        "NORMAL" : 13,
                        "TEXCOORD_0" : 14
                    },
                    "indices" : 15,
                    "material" : 3
                },
                {
                    "attributes" : {
                        "POSITION" : 16,
                        "NORMAL" : 17,
                        "TEXCOORD_0" : 18
                    },
                    "indices" : 19,
                    "material" : 4
                }
            ]
        }
    ],
    "accessors" : [
        {
            "bufferView" : 0,
            "componentType" : 5126,
            "count" : 7023,
            "max" : [
                4.127511978149414,
                1.4870669841766357,
                2.1833136081695557
            ],
            "min" : [
                -4.127511978149414,
                -2.0456032752990723,
                -2.5688891410827637
            ],
            "type" : "VEC3"
        },
        {
            "bufferView" : 1,
            "componentType" : 5126,
            "count" : 7023,
            "type" : "VEC3"
        },
        {
            "bufferView" : 2,
            "componentType" : 5126,
            "count" : 7023,
            "type" : "VEC2"
        },
        {
            "bufferView" : 3,
            "componentType" : 5123,
            "count" : 34872,
            "type" : "SCALAR"
        },
        {
            "bufferView" : 4,
            "componentType" : 5126,
            "count" : 174,
            "max" : [
                1.977720022201538,
                1.3779287338256836,
                1.2967798709869385
            ],
            "min" : [
                -1.977720022201538,
                -0.7594026923179626,
                -0.33010372519493103
            ],
            "type" : "VEC3"
        },
        {
            "bufferView" : 5,
            "componentType" : 5126,
            "count" : 174,
            "type" : "VEC3"
        },
        {
            "bufferView" : 6,
            "componentType" : 5126,
            "count" : 174,
            "type" : "VEC2"
        },
        {
            "bufferView" : 7,
            "componentType" : 5123,
            "count" : 576,
            "type" : "SCALAR"
        },
        {
            "bufferView" : 8,
            "componentType" : 5126,
            "count" : 1478,
            "max" : [
                0.5342079401016235,
                -0.34587040543556213,
                -2.2656309604644775
            ],
            "min" : [
                -0.5342079401016235,
                -0.88044273853302,
                -2.727033853530884
            ],
            "type" : "VEC3"
        },
        {
            "bufferView" : 9,
            "componentType" : 5126,
            "count" : 1478,
            "type" : "VEC3"
        },
        {
            "bufferView" : 10,
            "componentType" : 5126,
            "count" : 1478,
            "type" : "VEC2"
        },
        {
            "bufferView" : 11,
            "componentType" : 5123,
            "count" : 6912,
            "type" : "SCALAR"
        },
        {
            "bufferView" : 12,
            "componentType" : 5126,
            "count" : 985,
            "max" : [
                1.420658826828003,
                -0.3621560037136078,
                -2.1661009788513184
            ],
            "min" : [
                -1.420658826828003,
                -0.88044273853302,
                -2.6186420917510986
            ],
            "type" : "VEC3"
        },
        {
            "bufferView" : 13,
            "componentType" : 5126,
            "count" : 985,
            "type" : "VEC3"
        },
        {
            "bufferView" : 14,
            "componentType" : 5126,
            "count" : 985,
            "type" : "VEC2"
        },
        {
            "bufferView" : 15,
            "componentType" : 5123,
            "count" : 4608,
            "type" : "SCALAR"
        },
        {
            "bufferView" : 16,
            "componentType" : 5126,
            "count" : 48,
            "max" : [
                0.842036247253418,
                0.7316952347755432,
                -2.056123971939087
            ],
            "min" : [
                -0.842036247253418,
                0.524163544178009,
                -2.2049002647399902
            ],
            "type" : "VEC3"
        },
        {
            "bufferView" : 17,
            "componentType" : 5126,
            "count" : 48,
            "type" : "VEC3"
        },
        {
            "bufferView" : 18,
            "componentType" : 5126,
            "count" : 48,
            "type" : "VEC2"
        },
        {
            "bufferView" : 19,
            "componentType" : 5123,
            "count" : 180,
            "type" : "SCALAR"
        }
    ],
    "bufferViews" : [
        {
            "buffer" : 0,
            "byteLength" : 84276,
            "byteOffset" : 0
        },
        {
            "buffer" : 0,
            "byteLength" : 84276,
            "byteOffset" : 84276
        },
        {
            "buffer" : 0,
            "byteLength" : 56184,
            "byteOffset" : 168552
        },
        {
            "buffer" : 0,
            "byteLength" : 69744,
            "byteOffset" : 224736
        },
        {
            "buffer" : 0,
            "byteLength" : 2088,
            "byteOffset" : 294480
        },
        {
            "buffer" : 0,
            "byteLength" : 2088,
            "byteOffset" : 296568
        },
        {
            "buffer" : 0,
            "byteLength" : 1392,
            "byteOffset" : 298656
        },
        {
            "buffer" : 0,
            "byteLength" : 1152,
            "byteOffset" : 300048
        },
        {
            "buffer" : 0,
            "byteLength" : 17736,
            "byteOffset" : 301200
        },
        {
            "buffer" : 0,
            "byteLength" : 17736,
            "byteOffset" : 318936
        },
        {
            "buffer" : 0,
            "byteLength" : 11824,
            "byteOffset" : 336672
        },
        {
            "buffer" : 0,
            "byteLength" : 13824,
            "byteOffset" : 348496
        },
        {
            "buffer" : 0,
            "byteLength" : 11820,
            "byteOffset" : 362320
        },
        {
            "buffer" : 0,
            "byteLength" : 11820,
            "byteOffset" : 374140
        },
        {
            "buffer" : 0,
            "byteLength" : 7880,
            "byteOffset" : 385960
        },
        {
            "buffer" : 0,
            "byteLength" : 9216,
            "byteOffset" : 393840
        },
        {
            "buffer" : 0,
            "byteLength" : 576,
            "byteOffset" : 403056
        },
        {
            "buffer" : 0,
            "byteLength" : 576,
            "byteOffset" : 403632
        },
        {
            "buffer" : 0,
            "byteLength" : 384,
            "byteOffset" : 404208
        },
        {
            "buffer" : 0,
            "byteLength" : 360,
            "byteOffset" : 404592
        }
    ],
    "buffers" : [
        {
            "byteLength" : 404952,
            "uri" : "data:application/octet-stream;base64,"
        }
    ]
}
